<svg width="38" height="38" viewBox="0 0 38 38" fill="none" xmlns="http://www.w3.org/2000/svg">
<rect width="38" height="38" fill="white"/>
<path d="M3.937 19.1028L3.828 19.0508C3.588 18.9158 3.401 18.7178 3.271 18.4618C3.083 18.1178 3 17.7948 3 17.4618L3.026 17.2898C3.026 17.0238 3.094 16.7848 3.214 16.5558L3.323 16.3578C3.375 16.2488 3.453 16.1548 3.521 16.0658C3.604 15.9718 3.615 15.8518 3.589 15.7428L3.521 15.5288C3.443 15.2628 3.391 14.9978 3.391 14.7318L3.349 14.5708C3.349 14.2738 3.427 13.9818 3.615 13.7688L3.75 13.5968C3.844 13.4618 3.99 13.3828 4.151 13.3308C4.281 13.2888 4.375 13.1538 4.391 12.9978L4.417 12.5448C4.417 12.1858 4.589 11.8518 4.855 11.6068L5.178 11.3668C5.241 11.3038 5.308 11.2368 5.36 11.1268C5.428 11.0488 5.443 10.9388 5.428 10.8608C5.402 10.7308 5.428 10.6888 5.496 10.6728C5.71 10.7558 5.845 10.7298 5.939 10.6208L6.111 10.3968L6.59 9.86083C6.725 9.73083 6.778 9.48582 6.694 9.30382L6.538 8.95482C6.512 8.87682 6.538 8.78282 6.606 8.75682C6.778 8.75682 6.898 8.81982 6.95 8.92882L7.002 9.02282C7.085 9.18382 7.273 9.26282 7.403 9.19482C7.695 9.09082 7.939 9.06483 8.163 9.06483H8.59C8.882 9.06483 9.121 8.86182 9.179 8.55482C9.231 8.18482 9.361 7.88783 9.549 7.68983C9.752 7.46083 9.976 7.28882 10.242 7.15382C10.591 6.97182 10.805 6.70082 10.872 6.35682C10.966 5.92982 11.19 5.62282 11.497 5.42482L12.513 4.85182L12.805 4.67482C12.977 4.57082 13.138 4.43482 13.274 4.27382L13.54 3.95582C13.67 3.82082 13.806 3.73182 13.967 3.68982C14.097 3.64782 14.285 3.62182 14.446 3.63782L14.977 3.67382C15.243 3.67382 15.456 3.74182 15.67 3.83482L15.805 3.90282C15.94 3.95482 16.071 3.92882 16.138 3.83482L16.258 3.76682L16.831 3.16782C16.966 3.03282 17.123 2.97982 17.3 3.00682C17.472 3.03282 17.644 3.10082 17.805 3.18382C18.045 3.31382 18.243 3.36582 18.472 3.36582H18.607C18.899 3.36582 19.19 3.40782 19.487 3.47482L19.685 3.52682C19.883 3.57882 20.086 3.50082 20.216 3.33882C20.258 3.27082 20.351 3.26082 20.404 3.31282C20.446 3.33882 20.456 3.36482 20.472 3.40682C20.498 3.67282 20.66 3.87582 20.873 3.93782L21.087 4.00582C21.311 4.07382 21.514 4.21982 21.644 4.40682C21.779 4.60482 21.941 4.80782 22.123 4.93782L22.258 5.07282C22.393 5.20782 22.576 5.26082 22.763 5.24482H23.549C23.872 5.24482 24.179 5.30182 24.487 5.43282C24.779 5.56782 25.086 5.59382 25.362 5.48482C25.659 5.39582 25.966 5.35482 26.273 5.39582L26.846 5.48482C27.112 5.51582 27.377 5.64582 27.539 5.84982L27.607 5.91282C27.737 6.04782 27.873 6.21982 28.003 6.40782C28.086 6.57982 28.274 6.67382 28.456 6.67382H29.284C29.487 6.67382 29.685 6.71582 29.847 6.80882C30.019 6.93882 30.165 7.07483 30.3 7.20983L30.43 7.38182C30.591 7.56982 30.67 7.81982 30.659 8.08982C30.659 8.30382 30.82 8.48583 31.029 8.48583L31.3 8.51682C31.488 8.51682 31.644 8.64682 31.738 8.81882L31.873 9.08982L32.217 9.86083C32.274 9.99583 32.285 10.1268 32.274 10.2358C32.274 10.3658 32.31 10.4758 32.404 10.5278L32.539 10.6218C32.711 10.7568 32.805 10.9548 32.779 11.1848L32.685 11.8098L32.659 12.0758C32.633 12.2108 32.695 12.3828 32.82 12.4768C33.018 12.6068 33.112 12.7838 33.122 12.9818V13.2478C33.122 13.3828 33.096 13.5448 32.992 13.6488C32.909 13.7578 32.857 13.8888 32.857 14.0498L32.899 14.3568C32.899 14.5708 33.029 14.7578 33.165 14.8878C33.353 15.0228 33.457 15.2368 33.488 15.4508C33.54 15.7838 33.551 16.0498 33.551 16.3158V16.6228C33.551 16.7318 33.551 16.8368 33.593 16.9408C33.619 17.0348 33.687 17.1288 33.765 17.1858L34.031 17.3838C34.302 17.5558 34.489 17.7848 34.594 18.0918C34.729 18.3838 34.766 18.6908 34.766 18.9978V19.1018C34.766 19.3418 34.74 19.5968 34.662 19.8208C34.594 20.0658 34.61 20.2898 34.698 20.4878C34.807 20.6758 34.875 20.8888 34.901 21.1178C34.953 21.3838 34.927 21.6488 34.833 21.8628L34.807 21.9568C34.739 22.1178 34.635 22.2638 34.5 22.3838C34.365 22.5188 34.234 22.5978 34.156 22.6908C34.073 22.7688 34.021 22.9048 34.062 23.0238L34.098 23.2118C34.166 23.4778 34.166 23.7428 34.098 23.9828V24.0918C34.046 24.2898 33.968 24.4618 33.884 24.6228C33.79 24.7948 33.66 24.9298 33.488 25.0238L33.285 25.1538C33.191 25.2108 33.124 25.3308 33.124 25.4508C33.124 25.5808 33.072 25.7168 32.994 25.7948L32.791 26.0658C32.661 26.2378 32.489 26.3838 32.301 26.4618C32.113 26.5968 31.952 26.7328 31.832 26.8628C31.697 27.0238 31.592 27.2118 31.54 27.3988C31.488 27.6388 31.3 27.7688 31.097 27.7688H30.378C30.19 27.7688 30.019 27.9038 29.94 28.0658C29.846 28.2738 29.752 28.4248 29.633 28.5558C29.498 28.6908 29.419 28.8528 29.362 29.0348C29.336 29.1958 29.206 29.3058 29.07 29.2488C28.898 29.1708 28.726 29.2488 28.643 29.3838C28.487 29.6498 28.325 29.8528 28.153 30.0248L28.059 30.1028C27.882 30.2378 27.658 30.3428 27.455 30.3428C27.215 30.3428 27.096 30.4518 27.059 30.6088C27.017 30.7438 26.991 30.9158 26.976 31.0668C26.95 31.2228 26.898 31.3688 26.846 31.5048L26.778 31.5828C26.643 31.7858 26.538 31.9838 26.403 32.1558L26.351 32.2388C26.179 32.4628 25.95 32.6398 25.684 32.7028C25.361 32.8118 25.085 32.8378 24.804 32.8378H24.616C24.486 32.8378 24.35 32.9158 24.257 33.0518L24.179 33.1868L24.096 33.3428L23.924 33.6398C23.789 33.8798 23.591 34.0358 23.325 34.1188C23.059 34.1868 22.752 34.2128 22.471 34.1968L22.257 34.1708C22.069 34.1708 21.898 34.1188 21.726 34.0358C21.591 33.9838 21.403 34.0358 21.325 34.1708C21.19 34.3588 21.028 34.4628 20.856 34.5198L20.455 34.6498C20.189 34.7178 19.898 34.7178 19.616 34.6498L19.402 34.5818C19.272 34.5818 19.136 34.5188 19.027 34.4518C18.897 34.3838 18.761 34.3578 18.631 34.3688L18.454 34.3998C18.188 34.4258 17.949 34.3998 17.709 34.3318L17.35 34.2488C17.189 34.1968 17.043 34.0928 16.949 33.9418C16.881 33.8118 16.735 33.7018 16.548 33.6758H16.121C15.855 33.6398 15.616 33.5458 15.454 33.3428L14.923 32.8378L14.735 32.6768L14.443 32.4628L14.271 32.3328C14.068 32.1978 13.828 32.0928 13.573 32.0668L12.776 31.9318C12.693 31.9318 12.641 31.9058 12.562 31.8898L12.255 31.8218C12.12 31.7958 11.989 31.6918 11.896 31.5558C11.818 31.4258 11.667 31.3678 11.537 31.4258C11.271 31.5298 11.058 31.5558 10.844 31.5978H10.656C10.307 31.6238 9.989 31.5718 9.666 31.4258C9.348 31.2908 9.135 31.0928 8.937 30.8368C8.776 30.6078 8.536 30.4358 8.239 30.3838L7.869 30.3058C7.603 30.2488 7.333 30.1448 7.093 29.9828C6.827 29.7948 6.692 29.6238 6.588 29.4098C6.484 29.2118 6.416 28.9828 6.4 28.7428V28.6388C6.374 28.3678 6.186 28.1288 5.936 28.0658C5.629 27.9718 5.4 27.8368 5.202 27.6648C5.014 27.4878 4.905 27.2378 4.905 26.9718L4.936 26.3828C4.936 26.1538 4.868 25.9558 4.707 25.8098C4.546 25.6488 4.441 25.4508 4.441 25.2368L4.399 24.7578C4.373 24.4088 4.305 24.0648 4.227 23.7158C4.149 23.4088 4.269 23.1008 4.519 22.9558L4.613 22.8878C4.748 22.7938 4.801 22.6218 4.722 22.4608L4.613 22.3308C4.483 22.1958 4.347 22.1018 4.212 22.0648C4.108 22.0338 4.082 21.9298 4.082 21.8618L4.212 21.7008C4.295 21.6068 4.28 21.4608 4.212 21.3828C4.108 21.2738 4.056 21.1428 4.04 21.0078L4.014 20.0758C4.014 19.8878 4.04 19.7008 4.092 19.5188C4.149 19.3578 4.092 19.1698 3.936 19.0918L3.937 19.1028ZM17.135 17.3418C17.229 17.2478 17.213 17.0758 17.135 17.0088C17 16.9048 16.906 16.7848 16.828 16.6498L16.693 16.4358C16.604 16.2638 16.485 16.1178 16.349 15.9828L16.323 15.9568C16.188 15.8528 16.094 15.7168 16.016 15.5558C15.948 15.4258 15.948 15.2898 16.016 15.1548L16.094 15.0248C16.177 14.8898 16.229 14.7018 16.229 14.5458V14.4888C16.229 14.3588 16.177 14.2228 16.094 14.0928C16.042 13.9838 15.99 13.8528 15.964 13.7178V13.6398C15.922 13.4788 15.964 13.3068 16.068 13.1708C16.177 12.9988 16.256 12.8378 16.297 12.6398V12.6088C16.349 12.4788 16.323 12.3068 16.24 12.1708C16.162 12.0358 16.136 11.9048 16.188 11.7438L16.282 11.4778C16.36 11.2378 16.485 11.0248 16.641 10.8368L16.829 10.6388L16.964 10.4778L17.042 10.3998C17.12 10.3168 17.136 10.1858 17.068 10.0768C17 9.94182 16.964 9.81083 16.99 9.67583L17.016 9.48782C17.058 9.22182 17.151 8.95683 17.323 8.74283L17.375 8.69082C17.573 8.42482 17.828 8.24782 18.12 8.15482L18.485 8.02483C18.641 7.97283 18.751 7.79583 18.751 7.62383C18.751 7.40983 18.819 7.22283 18.938 7.05083L19.001 6.98282C19.136 6.75882 19.298 6.52982 19.402 6.28982L19.496 6.11782C19.522 6.07582 19.538 6.02382 19.538 5.98282C19.538 5.75882 19.403 5.55582 19.189 5.54482L18.606 5.50282C18.273 5.47682 17.939 5.50282 17.616 5.50282L16.486 5.63783C16.309 5.63783 16.179 5.76782 16.163 5.95582C16.163 6.14382 16.028 6.30482 15.871 6.35682L15.392 6.48682L15.257 6.52882L14.856 6.66382C14.564 6.75782 14.325 6.97083 14.189 7.26283L14.085 7.43482C13.95 7.73182 13.726 7.97083 13.444 8.14283C13.178 8.31483 13.043 8.59583 13.017 8.91383V9.04882C12.991 9.31482 12.908 9.57983 12.751 9.76783L12.683 9.87682C12.574 10.0068 12.548 10.1838 12.615 10.3298C12.683 10.4858 12.724 10.6628 12.709 10.8348V11.5428C12.709 11.7308 12.574 11.8868 12.443 11.9388C12.255 12.0068 12.136 12.1528 12.084 12.3398L12.016 12.6058C11.964 12.8768 12.058 13.1418 12.282 13.3038C12.496 13.4598 12.631 13.6998 12.683 13.9968V14.2368C12.725 14.5028 12.871 14.7678 13.11 14.9038C13.35 15.0648 13.537 15.3048 13.641 15.5708L13.709 15.7848C13.818 16.0768 14.058 16.2488 14.324 16.2748H14.402C14.642 16.2748 14.855 16.4098 14.991 16.6238C15.121 16.8378 15.335 16.9828 15.574 17.0248L15.949 17.1288C16.178 17.1968 16.392 17.3168 16.564 17.4878L16.59 17.5188C16.725 17.6228 16.939 17.6078 17.059 17.4618L17.153 17.3578L17.135 17.3418ZM18.655 16.1178C18.785 16.1958 18.921 16.1538 18.973 16.0348L19.015 15.9718C19.109 15.7838 19.229 15.5968 19.359 15.4358L19.63 15.0348C19.666 15.0348 19.682 15.0088 19.693 14.9828L20.016 14.5558C20.151 14.4258 20.308 14.3318 20.495 14.3318C20.667 14.3318 20.818 14.2378 20.896 14.0658C20.948 13.8778 21.026 13.7008 21.188 13.5558L21.256 13.4778C21.391 13.3428 21.522 13.2748 21.657 13.2118C21.829 13.1858 21.99 13.1548 22.152 13.1548H22.548C22.709 13.1548 22.845 13.0918 22.923 12.9568C23.001 12.8218 23.121 12.7328 23.256 12.6648L23.391 12.6078C23.605 12.5188 23.844 12.4518 24.084 12.4258L24.35 12.3998C24.511 12.3998 24.683 12.3998 24.845 12.4888C24.975 12.5828 25.152 12.5718 25.283 12.4628L25.377 12.4108C25.575 12.2758 25.804 12.1708 26.044 12.1448H26.07C26.336 12.0928 26.575 12.0928 26.846 12.1028H26.976C27.242 12.1448 27.471 12.2378 27.643 12.4358L27.685 12.4878C27.82 12.6228 28.029 12.7328 28.216 12.7328H28.445C28.513 12.7328 28.575 12.7018 28.617 12.6388C28.659 12.5968 28.726 12.5558 28.789 12.5558H28.924C29.112 12.5558 29.283 12.6078 29.455 12.6648L29.684 12.7588C29.898 12.8218 30.122 12.8888 30.351 12.9148H30.512C30.616 12.9148 30.684 12.8518 30.684 12.7588C30.684 12.6238 30.658 12.4878 30.59 12.3838L30.496 12.1698C30.392 11.9978 30.308 11.8108 30.23 11.6388L30.204 11.5708C30.136 11.4358 30.136 11.3048 30.204 11.1698V11.1018C30.23 10.9978 30.178 10.8778 30.069 10.8358H29.965C29.751 10.7678 29.564 10.6478 29.429 10.4768L29.299 10.3418C29.164 10.2118 29.085 10.0088 29.028 9.81082C28.965 9.63882 28.82 9.50382 28.632 9.50382H28.069C27.871 9.47782 27.694 9.36882 27.574 9.21182L27.522 9.14383C27.428 9.00883 27.35 8.85182 27.298 8.69082C27.23 8.55582 27.084 8.47683 26.949 8.51883L26.788 8.57083C26.522 8.66483 26.257 8.70082 25.991 8.67482L25.777 8.64882C25.548 8.64882 25.334 8.55482 25.162 8.42482L25.027 8.33082C24.923 8.24782 24.819 8.19583 24.694 8.14283C24.564 8.09083 24.454 8.11682 24.376 8.21082L24.308 8.28883C24.178 8.42383 23.99 8.52882 23.803 8.55482L23.084 8.59683C22.949 8.59683 22.818 8.66482 22.725 8.75782C22.616 8.85182 22.496 8.91383 22.36 8.93983H22.334C22.204 8.93983 22.068 9.03382 21.938 9.12782V9.15382C21.803 9.28882 21.631 9.35682 21.454 9.35682L21.402 9.38282C21.241 9.38282 21.084 9.38282 20.923 9.42482H20.762C20.538 9.46082 20.361 9.64882 20.309 9.88882L20.257 10.1958C20.215 10.4098 20.122 10.5968 19.991 10.7688C19.856 10.9298 19.694 11.0348 19.496 11.0348H19.272C19.137 11.0658 19.001 11.2118 19.027 11.3678C19.058 11.5968 19.027 11.7948 18.991 11.9978L18.939 12.2218C18.882 12.4248 18.751 12.5808 18.574 12.6488L18.496 12.6908H18.47C18.392 12.7428 18.335 12.8628 18.402 12.9568C18.485 13.0918 18.511 13.2228 18.496 13.3578L18.454 13.7848C18.454 13.9408 18.391 14.0918 18.324 14.2228C18.241 14.3578 18.241 14.4888 18.298 14.6238L18.428 14.9158C18.496 15.0508 18.511 15.1868 18.47 15.3428C18.428 15.4778 18.402 15.6088 18.418 15.7438C18.418 15.8788 18.496 16.0098 18.606 16.0668L18.655 16.1178ZM29.187 25.7588C29.322 25.8888 29.52 25.9408 29.682 25.8368L29.948 25.6648C30.083 25.5708 30.188 25.4358 30.24 25.2638V25.2378L30.375 24.8368L30.453 24.7018L30.51 24.5718L30.562 24.4778C30.614 24.3688 30.692 24.2898 30.828 24.2488L30.88 24.2228C30.989 24.1968 31.057 24.0928 31.057 23.9828C31.057 23.8528 31.12 23.7428 31.187 23.6498L31.296 23.5558L31.562 23.2118V23.1858C31.64 23.0768 31.692 22.9568 31.723 22.8208C31.749 22.6908 31.723 22.5548 31.666 22.4248L31.64 22.3678C31.588 22.2378 31.562 22.1438 31.546 22.0238L31.51 21.6488L31.468 21.2478C31.468 21.1178 31.52 20.9818 31.603 20.8518C31.692 20.7428 31.759 20.6068 31.817 20.4768V20.4248L31.843 20.3988C31.869 20.2638 31.801 20.1278 31.682 20.1278C31.547 20.0648 31.416 19.9558 31.375 19.7948L31.333 19.7168C31.27 19.4768 31.229 19.2378 31.229 18.9978L31.255 18.3308V18.2888C31.255 18.0648 31.067 17.8878 30.854 17.8878H30.828C30.562 17.8878 30.349 17.8098 30.161 17.6218L30.057 17.4868L29.786 17.1848L29.442 16.7838C29.307 16.5958 29.176 16.4348 28.999 16.2738C28.869 16.1438 28.666 16.0078 28.468 15.9818L28.202 15.9398C28.067 15.9138 27.895 15.8508 27.749 15.7578C27.64 15.6748 27.483 15.7008 27.374 15.8098L27.202 15.9978L27.119 16.0498C27.025 16.0758 26.937 16.0238 26.895 15.9148C26.843 15.7588 26.843 15.5708 26.921 15.4098V15.3318C26.921 15.2378 26.843 15.1708 26.76 15.1968H26.546C26.306 15.1968 26.067 15.1708 25.843 15.0668L25.708 15.0098C25.573 14.9418 25.416 14.9058 25.27 14.9058C25.135 14.9058 24.999 14.9318 24.869 15.0098L24.817 15.0518C24.656 15.1558 24.468 15.2128 24.281 15.2238H23.843C23.64 15.2238 23.442 15.2918 23.307 15.4008C23.135 15.5048 22.948 15.5728 22.75 15.6088L22.391 15.6658C22.23 15.7018 22.058 15.7698 21.907 15.8898C21.777 16.0248 21.589 16.1038 21.417 16.1558L21.349 16.1868C21.135 16.2498 20.948 16.3848 20.818 16.5828L20.657 16.7438C20.563 16.8788 20.563 17.0358 20.657 17.1708C20.735 17.3058 20.897 17.3428 21.058 17.3058L21.256 17.2228C21.36 17.1868 21.485 17.2228 21.574 17.2748C21.657 17.3428 21.777 17.3838 21.897 17.3688L22.23 17.3328C22.418 17.3328 22.605 17.3328 22.787 17.3848C22.99 17.4528 23.162 17.5198 23.323 17.6508C23.484 17.7858 23.656 17.8388 23.854 17.8648C24.057 17.8908 24.255 17.9328 24.443 17.9998L24.573 18.0258C24.708 18.0678 24.818 18.1558 24.896 18.2918C24.964 18.4008 25.026 18.5578 25.026 18.6928V18.7348C25.026 18.8908 25.161 19.0008 25.297 19.0008H25.375C25.589 19.0008 25.818 19.0268 26.042 19.0948L26.136 19.1308C26.271 19.1878 26.402 19.2658 26.495 19.4018C26.604 19.5318 26.667 19.6678 26.709 19.7978L26.751 19.9858C26.787 20.1888 26.803 20.3868 26.803 20.6008V20.6688C26.803 20.7988 26.897 20.9348 27.043 20.9868C27.178 21.0128 27.335 21.0698 27.486 21.1478L27.549 21.1738C27.726 21.2778 27.898 21.4138 28.028 21.5748L28.096 21.6688C28.273 21.8668 28.362 22.1218 28.362 22.3718V22.4658C28.362 22.6688 28.326 22.8668 28.258 23.0548C28.206 23.2158 28.258 23.4038 28.43 23.4558L28.524 23.5238C28.727 23.6018 28.899 23.7478 29.029 23.9198C29.164 24.1228 29.217 24.3468 29.217 24.5868V24.9878C29.191 25.1228 29.154 25.2278 29.087 25.3208C29.02 25.4138 29.019 25.5498 29.087 25.6438L29.165 25.7738L29.187 25.7588ZM20.655 18.9308H20.629C20.572 18.9308 20.546 18.9988 20.561 19.0658L20.613 19.3318C20.665 19.5458 20.691 19.7588 20.722 19.9728C20.748 20.1868 20.852 20.3688 21.014 20.5038H21.066C21.269 20.6648 21.389 20.9048 21.399 21.1448V21.8118C21.373 21.9418 21.399 22.0778 21.482 22.1868L21.545 22.2498C21.68 22.4108 21.733 22.5988 21.748 22.7858L21.784 23.5198C21.784 23.6918 21.68 23.8378 21.518 23.8638L21.388 23.8898C21.294 23.8898 21.253 23.9988 21.253 24.0928C21.253 24.1968 21.295 24.3168 21.331 24.4258V24.4518C21.373 24.5818 21.388 24.7178 21.373 24.8528L21.321 25.2118C21.269 25.4778 21.186 25.7168 21.055 25.9568L20.961 26.1178C20.893 26.2478 20.8 26.3318 20.69 26.3838C20.56 26.4358 20.466 26.5448 20.424 26.6758L20.32 27.1548C20.252 27.4258 20.132 27.6908 19.971 27.9568H19.945C19.784 28.1708 19.586 28.3578 19.346 28.4878L19.185 28.5968L18.784 28.7948C18.654 28.8518 18.57 28.9718 18.544 29.1178L18.481 29.5558C18.439 29.8218 18.346 30.0508 18.158 30.2228L17.986 30.4258L17.783 30.6238L17.585 30.8378C17.424 31.0258 17.184 31.1038 16.918 31.0668L16.439 30.9728L15.996 30.9158H15.876C15.824 30.9728 15.813 31.0508 15.85 31.1298C15.944 31.2908 16.09 31.4008 16.251 31.4008L16.543 31.4528C16.678 31.4528 16.84 31.5208 16.97 31.5828C17.105 31.6768 17.236 31.7438 17.397 31.7858H17.423C17.6 31.8538 17.782 31.8638 17.959 31.8538L18.157 31.8228C18.386 31.7968 18.6 31.8228 18.782 31.9058L18.943 31.9578C19.011 31.9838 19.115 31.9578 19.183 31.8898C19.266 31.8118 19.344 31.7598 19.449 31.7178L19.558 31.6918C19.73 31.6398 19.902 31.6088 20.089 31.6088H20.198C20.354 31.6088 20.505 31.6398 20.636 31.7178L20.688 31.7438C20.782 31.7858 20.891 31.7438 20.959 31.6658C20.995 31.5718 21.089 31.4778 21.183 31.3998L21.516 31.1708L21.73 31.0358L21.839 30.9728C21.969 30.8788 22.157 30.8378 22.318 30.8378L22.797 30.7958C22.985 30.7698 23.146 30.6398 23.198 30.4518C23.25 30.2488 23.328 30.0508 23.464 29.8788C23.599 29.7018 23.73 29.5558 23.865 29.4258C24.037 29.2908 24.209 29.2228 24.396 29.2118H24.505C24.719 29.1698 24.875 28.9718 24.864 28.7588V27.8628C24.89 27.7328 24.942 27.5558 25.02 27.4248L25.291 27.0238L25.395 26.8888C25.478 26.8208 25.53 26.7328 25.624 26.6228L25.754 26.4508C25.837 26.3158 25.837 26.1438 25.728 26.0238C25.598 25.8888 25.53 25.7008 25.504 25.5188V25.4618C25.478 25.2478 25.478 25.0238 25.54 24.7948V24.7318C25.608 24.5548 25.701 24.3828 25.811 24.2218C25.915 24.0918 25.9 23.9038 25.769 23.7948L25.54 23.5968C25.352 23.4358 25.248 23.1958 25.222 22.9558L25.196 22.6898C25.196 22.6068 25.196 22.5178 25.17 22.4238L25.144 22.2208C25.113 21.9968 24.983 21.8198 24.795 21.6898L24.701 21.6638C24.566 21.5808 24.435 21.4608 24.326 21.3048C24.222 21.1698 24.17 20.9818 24.128 20.7948L24.086 20.5708C24.086 20.4878 24.034 20.4358 23.956 20.3988L23.315 20.1958C23.18 20.1698 23.049 20.0658 22.956 19.9718H22.93C22.847 19.8628 22.716 19.8628 22.633 19.9408L22.503 20.0758C22.477 20.1178 22.446 20.1278 22.409 20.1178C22.326 20.1178 22.274 20.0498 22.3 19.9828C22.326 19.7688 22.248 19.5558 22.076 19.4258L21.899 19.2908L21.503 19.0248C21.394 18.9828 21.232 19.0248 21.18 19.1548L21.128 19.2378C21.128 19.2638 21.086 19.2738 21.076 19.2898C21.019 19.2898 20.941 19.2898 20.941 19.2218L20.899 19.1538C20.863 19.0758 20.769 19.0238 20.685 18.9978L20.655 18.9308ZM19.056 20.2638L18.988 20.1958C18.92 20.1438 18.853 20.1538 18.785 20.2218C18.691 20.3828 18.613 20.5548 18.571 20.7318V20.7578C18.535 20.9298 18.373 21.0498 18.212 21.0238H18.056C17.868 21.0238 17.723 21.1848 17.723 21.3678C17.723 21.6078 17.64 21.8518 17.494 22.0348L17.416 22.1178C17.281 22.2898 17.083 22.4098 16.88 22.4768L16.776 22.5028C16.641 22.5448 16.536 22.6378 16.51 22.7948C16.51 22.9298 16.427 23.0658 16.322 23.1698L16.187 23.2738C16.026 23.4508 15.786 23.5448 15.546 23.5708L14.879 23.6388C14.665 23.6388 14.483 23.7688 14.348 23.9718C14.213 24.1698 14.015 24.3048 13.817 24.3308L13.52 24.3568C13.306 24.3828 13.082 24.3828 12.853 24.3308L12.723 24.3048L12.358 24.2108C12.228 24.1688 12.118 24.2108 12.04 24.3048L11.905 24.4768C11.733 24.6748 11.483 24.7688 11.238 24.7428L10.373 24.6388C10.238 24.6388 10.133 24.5708 10.014 24.5038C9.879 24.4258 9.785 24.3318 9.691 24.2378L9.358 23.8368C9.322 23.8108 9.254 23.7948 9.186 23.8108L8.998 23.8888L8.253 24.0768C8.118 24.1188 7.946 24.0768 7.815 23.9988C7.68 23.8898 7.518 23.8638 7.357 23.8638H7.185C7.024 23.9058 6.919 24.0778 6.971 24.2388L7.023 24.5048C7.065 24.6398 7.054 24.7968 6.987 24.9318C6.92 25.0668 6.935 25.1978 7.023 25.3328L7.106 25.4368C7.21 25.5978 7.372 25.7338 7.507 25.8638C7.637 25.9988 7.773 26.1298 7.877 26.3068L8.08 26.6658C8.184 26.8538 8.346 26.9578 8.559 26.9578C8.757 26.9578 8.96 27.0258 9.116 27.1558L9.517 27.5308C9.626 27.6248 9.783 27.6398 9.892 27.5568L9.96 27.5308C10.038 27.5308 10.09 27.5828 10.09 27.6658V27.7338C10.09 27.9058 10.225 28.0668 10.397 28.1298L10.996 28.2648C11.21 28.3328 11.423 28.3998 11.626 28.5308H11.73C11.839 28.5308 11.933 28.4368 11.918 28.3168V27.8528C11.918 27.7178 11.97 27.5818 12.079 27.5298L12.147 27.5038C12.21 27.5298 12.277 27.5818 12.251 27.6388V27.8628C12.251 28.0348 12.303 28.1958 12.423 28.3158C12.558 28.4508 12.73 28.4768 12.876 28.4248C13.037 28.3568 13.199 28.3418 13.371 28.3568L13.866 28.3828C14.106 28.4088 14.33 28.3828 14.533 28.2888C14.773 28.2108 14.971 28.1008 15.158 27.9558L15.236 27.9038L15.637 27.5448C15.772 27.4098 15.944 27.3418 16.106 27.3418H16.637C16.903 27.3158 17.147 27.0758 17.173 26.8108L17.225 26.5448C17.225 26.3678 17.303 26.2118 17.423 26.0758C17.558 25.9408 17.689 25.8618 17.824 25.8098L17.985 25.7418C18.209 25.6478 18.386 25.4498 18.464 25.2108L18.542 24.8878C18.61 24.6218 18.745 24.3568 18.943 24.1848L18.969 24.1538C19.13 24.0238 19.157 23.7578 19.052 23.5708L19.01 23.4768C18.916 23.3418 18.901 23.1438 18.968 22.9718C19.036 22.7838 19.103 22.6228 19.208 22.4618L19.343 22.2738C19.395 22.1698 19.395 22.0078 19.317 21.9148C19.234 21.8108 19.182 21.6748 19.182 21.5448L19.156 21.3568V20.9038C19.182 20.7688 19.156 20.5968 19.114 20.4608L19.062 20.3048L19.056 20.2638ZM17.15 19.2478V19.2118C17.15 19.0768 17.067 18.9978 16.962 18.9978H16.613C16.483 19.0238 16.347 19.0238 16.238 18.9978H15.639C15.332 18.9978 15.04 18.9408 14.748 18.8628L14.425 18.7848L14.159 18.7018L13.56 18.5038C13.237 18.4098 12.997 18.1968 12.852 17.9048L12.784 17.7698C12.69 17.5718 12.492 17.4628 12.294 17.5038C12.065 17.5038 11.841 17.5038 11.627 17.3998L11.466 17.3318C11.159 17.1968 10.935 16.9308 10.935 16.5718L10.878 16.2128C10.842 16.0248 10.722 15.8538 10.56 15.7858C10.372 15.7028 10.201 15.5978 10.024 15.4788L9.961 15.4368C9.758 15.2758 9.586 15.0668 9.492 14.8118L9.466 14.7338C9.398 14.5198 9.388 14.2908 9.44 14.0668L9.466 13.9838C9.518 13.8118 9.534 13.6398 9.534 13.4528C9.534 13.2918 9.466 13.1298 9.346 13.0098L9.158 12.8378C8.944 12.6658 8.814 12.4108 8.799 12.1298C8.773 11.8378 8.773 11.5568 8.825 11.2758V11.1978C8.825 11.0368 8.69 10.9318 8.559 10.9318H8.517C8.345 10.9318 8.199 11.0358 8.116 11.1978C8.053 11.3858 7.944 11.5308 7.824 11.6768L7.772 11.7448L7.371 12.1458C7.236 12.2758 7.157 12.4788 7.131 12.6768C7.105 12.8798 7.053 13.0778 6.97 13.2658L6.944 13.3338C6.876 13.4898 6.772 13.6408 6.637 13.7348C6.507 13.8388 6.413 14.0008 6.413 14.1568L6.387 14.7718C6.387 15.0378 6.345 15.3078 6.252 15.5738L6.226 15.6778C6.158 15.8548 6.226 16.0368 6.387 16.1208L6.944 16.3608L6.996 16.3868C7.038 16.3868 7.053 16.4128 7.064 16.4548C7.106 16.5068 7.064 16.5848 7.022 16.5848L6.892 16.6528C6.814 16.6788 6.757 16.7618 6.731 16.8558L6.705 16.9858V17.0118L6.57 17.7618C6.544 17.8658 6.544 17.9858 6.544 18.1058C6.544 18.2148 6.612 18.3088 6.705 18.3458L6.997 18.4808C7.132 18.5588 7.294 18.6528 7.398 18.7468L7.533 18.8558C7.569 18.9078 7.637 18.9598 7.689 18.9858L7.746 19.0378C7.84 19.1208 7.902 19.2258 7.934 19.3448L8.064 19.9438C8.064 20.1048 8.199 20.2408 8.33 20.2768L8.544 20.3448C8.544 20.3448 8.586 20.3448 8.612 20.3708L8.878 20.4538C9.092 20.5218 9.279 20.6418 9.441 20.7978C9.602 20.9328 9.759 21.1048 9.894 21.2928L9.946 21.3448C10.055 21.4798 10.212 21.5478 10.373 21.5058C10.534 21.4638 10.706 21.4538 10.878 21.4538H11.081C11.211 21.4538 11.388 21.4898 11.534 21.5838C11.664 21.6668 11.841 21.7188 11.998 21.7868H12.04C12.201 21.8548 12.373 21.8228 12.509 21.7348C12.639 21.6258 12.816 21.5738 12.988 21.5738L13.613 21.6098C13.748 21.6098 13.879 21.5838 13.946 21.4798H13.972L14.201 21.2658L14.269 21.1978C14.373 21.0678 14.535 21.0098 14.691 20.9998H15.295C15.451 20.9998 15.602 20.8648 15.665 20.7338C15.733 20.5988 15.868 20.4888 16.024 20.4628L16.295 20.4108C16.399 20.4108 16.493 20.3168 16.535 20.1968C16.571 20.0668 16.639 19.9568 16.733 19.8788L16.947 19.6648C17.082 19.5298 17.15 19.3988 17.176 19.2378L17.15 19.2478Z" fill="black"/>
</svg>
