<svg width="500" height="500" viewBox="0 0 500 500" fill="none" xmlns="http://www.w3.org/2000/svg">
<path d="M4.63918 11.9048L83.5052 0L186.598 404.762L248.454 190.476L214.433 57.1429H164.948L169.588 11.9048L248.454 0L351.546 404.762L454.639 0H500C500 0 462.301 152.369 438.144 250C413.988 347.631 372.165 500 372.165 500C372.165 500 359.639 497.619 351.546 497.619C343.454 497.619 330.928 500 330.928 500L269.072 285.714L207.217 500C207.217 500 194.69 497.619 186.598 497.619C178.506 497.619 165.979 500 165.979 500L107.732 278.571L49.4845 57.1429H0L4.63918 11.9048Z" fill="url(#paint0_linear)"/>
<defs>
<linearGradient id="paint0_linear" x1="250" y1="0" x2="250" y2="500" gradientUnits="userSpaceOnUse">
<stop stop-color="#C12917"/>
<stop offset="1" stop-color="#D00000"/>
<stop offset="1" stop-color="#BC1C19"/>
</linearGradient>
</defs>
</svg>
